<svg id="visual" viewBox="0 0 900 600" width="900" height="600" xmlns="http://www.w3.org/2000/svg" xmlns:xlink="http://www.w3.org/1999/xlink" version="1.1"><rect x="0" y="0" width="900" height="600" fill="#001220"></rect><defs><linearGradient id="grad1_0" x1="33.3%" y1="0%" x2="100%" y2="100%"><stop offset="20%" stop-color="#001220" stop-opacity="1"></stop><stop offset="80%" stop-color="#001220" stop-opacity="1"></stop></linearGradient></defs><defs><linearGradient id="grad2_0" x1="0%" y1="0%" x2="66.7%" y2="100%"><stop offset="20%" stop-color="#001220" stop-opacity="1"></stop><stop offset="80%" stop-color="#001220" stop-opacity="1"></stop></linearGradient></defs><g transform="translate(900, 0)"><path d="M0 405.6C-21.2 340.5 -42.4 275.3 -89 273.9C-135.6 272.5 -207.6 334.7 -238.4 328.2C-269.2 321.6 -258.8 246.1 -280.7 204C-302.7 161.8 -357.1 153 -383.3 124.5C-409.5 96.1 -407.6 48 -405.6 0L0 0Z" fill="#FBAE3C"></path></g><g transform="translate(0, 600)"><path d="M0 -405.6C34.2 -378.2 68.4 -350.9 111.6 -343.3C154.8 -335.8 207 -348.2 238.4 -328.2C269.9 -308.2 280.6 -255.8 297.7 -216.3C314.9 -176.8 338.5 -150.1 357.6 -116.2C376.7 -82.3 391.1 -41.1 405.6 0L0 0Z" fill="#FBAE3C"></path></g></svg>